<?xml version="1.0" encoding="UTF-8"?>
<svg width="480px" height="190px" viewBox="0 0 480 190" version="1.1" xmlns="http://www.w3.org/2000/svg" xmlns:xlink="http://www.w3.org/1999/xlink">
    <!-- Generator: Sketch 45.1 (43504) - http://www.bohemiancoding.com/sketch -->
    <title>Element 3@1,5x</title>
    <desc>Created with Sketch.</desc>
    <defs></defs>
    <g id="Page-1" stroke="none" stroke-width="1" fill="none" fill-rule="evenodd">
        <g id="Artboard" transform="translate(-200.000000, -243.000000)">
            <g id="Element-3" transform="translate(197.000000, 242.000000)">
                <text id="swop" fill="#F39016" font-family="FredokaOne-Regular, Fredoka One" font-size="120" font-weight="normal">
                    <tspan x="0.16" y="162.17">swop</tspan>
                </text>
                <path d="M431.718665,162.638704 C429.164398,162.189255 426.69824,161.524374 424.1,160.54 C423.940914,161.498056 423.90061,162.472076 423.98,163.44 C394.41,163.44 364.61,163.65 335.04,163.64 L334.93,163.64 C334.93,163.64 334.93,163.57 334.93,163.54 L334.08658,163.54 C334.367313,163.576403 334.648453,163.613095 334.93,163.65 C333.93,172.59 326.93,177.55 321.93,177.55 C318.93,177.55 312.93,172.55 307.93,163.55 C307.943333,163.546659 307.956667,163.543326 307.970001,163.54 L307.93,163.54 C300.69,151.01 296.71,136.08 295.25,120.61 C294.38501,111.086267 294.38501,101.503733 295.25,91.98 C295.924288,84.2125511 297.133828,76.5008968 298.87,68.9 C298.87,68.78 298.87,68.66 298.95,68.54 C303.79,47.64 312.21,30.06 321.95,21.54 C356.23,-8.46 414.61,-5.46 445.3,29.54 C445.86,30.2066667 446.41,30.8733333 446.95,31.54 C454.79,41.11 460.35,59.4 462.48,80.47 C463.212911,87.8027496 463.523424,95.1715869 463.41,102.54 C463.11,123.91 459.29,146 450.94,163.54 L450.54,163.54 L449.568903,163.54 C449.887922,163.5718 450.211487,163.59 450.54,163.59 L450.94,163.55 C445.94,172.55 440.94,177.55 437.1,177.55 C432.65,177.55 424.62,171.18 423.98,163.45 C426.550012,163.085376 429.131291,162.814851 431.718665,162.638704 Z" id="Combined-Shape" fill="#0F75BC" fill-rule="nonzero"></path>
                <path d="M334.94,163.55 C334.94,163.55 334.94,163.62 334.94,163.65 C325.92,163.65 316.92,163.616667 307.94,163.55 L334.94,163.55 Z" id="Shape" fill="#0F75BC" fill-rule="nonzero"></path>
                <path d="M443.25,163.51 C436.836667,163.47 430.413333,163.45 423.98,163.45 C423.90061,162.482076 423.940914,161.508056 424.1,160.55 C430.22,162.84 435.66,163.38 443.25,163.51 Z" id="Shape" fill="#0F75BC" fill-rule="nonzero"></path>
                <path d="M334.94,163.55 C334.94,163.55 334.94,163.62 334.94,163.65 C325.92,163.65 316.92,163.616667 307.94,163.55 L334.94,163.55 Z" id="Shape" fill="#0F75BC" fill-rule="nonzero"></path>
                <path d="M443.25,163.51 C436.836667,163.47 430.413333,163.45 423.98,163.45 C423.90061,162.482076 423.940914,161.508056 424.1,160.55 C430.22,162.84 435.66,163.38 443.25,163.51 Z" id="Shape" fill="#0F75BC" fill-rule="nonzero"></path>
                <path d="M449.94,54.05 C449.94,98.51 405.62,134.55 350.94,134.55 C331.500957,134.687356 312.344325,129.894757 295.26,120.62 C294.39501,111.096267 294.39501,101.513733 295.26,91.99 L294.96,94.55 C282.87,88.55 278.96,76.65 281.96,71.55 C284.24,67.7 291.96,67.31 298.96,68.55 C303.8,47.65 312.22,30.07 321.96,21.55 C356.24,-8.45 414.62,-5.45 445.31,29.6 C448.37114,37.3880581 449.94172,45.6819402 449.94,54.05 L449.94,54.05 Z" id="Shape" fill="#2294C6" fill-rule="nonzero"></path>
                <path d="M298.94,68.55 C298.94,68.67 298.94,68.79 298.86,68.91 C297.259379,76.5397174 296.051125,84.2465071 295.24,92 L294.94,94.56 C282.85,88.56 278.94,76.66 281.94,71.56 C284.22,67.7 292,67.31 298.94,68.55 Z" id="Shape" fill="#0F75BC" fill-rule="nonzero"></path>
                <path d="M462.94,102.55 C461.82,102.76 459.15,102.08 456.94,100.55 C453.66,98.28 453.83,94.61 453.94,91.55 C453.965045,90.412076 454.058547,89.2766904 454.22,88.15 C454.59,85.73 455.52,83.01 457.94,81.55 C459.153523,80.8490163 460.53937,80.5025546 461.94,80.55 C465.94,80.55 473.53,82.09 478.2,85.2 C480.73,86.89 482.56,88.8 482.91,90.55 C484.1,96.36 476.94,102.55 462.94,102.55 Z" id="Shape" fill="#2294C6" fill-rule="nonzero"></path>
                <ellipse id="Oval" fill-opacity="0.9" fill="#000000" fill-rule="nonzero" cx="315.44" cy="69.55" rx="3.5" ry="8"></ellipse>
                <ellipse id="Oval" fill-opacity="0.9" fill="#000000" fill-rule="nonzero" cx="408.44" cy="69.55" rx="3.5" ry="8"></ellipse>
                <path d="M385.89,74 C384.428788,75.4569208 382.740007,76.6660881 380.89,77.58 C371.71,82.08 360.3,83.16 350.48,81.5 C343.23,80.27 336.85,77.5 332.89,73.58 C329.89,70.58 326.89,60.58 336.89,60.58 L385.89,59.58 C393.44,59.93 391.54,68.34 385.89,74 Z" id="Shape" fill-opacity="0.9" fill="#000000" fill-rule="nonzero"></path>
                <ellipse id="Oval" fill="#FFFFFF" fill-rule="nonzero" opacity="0.1" transform="translate(348.946730, 23.559480) rotate(-26.950000) translate(-348.946730, -23.559480) " cx="348.94673" cy="23.5594804" rx="25" ry="8"></ellipse>
                <path d="M385.89,74 C384.428788,75.4569208 382.740007,76.6660881 380.89,77.58 C371.71,82.08 360.3,83.16 350.48,81.5 C352.72,76.9 358.31,72.69 365.48,70.73 C374,68.41 382,69.9 385.89,74 Z" id="Shape" fill="#EDA761" fill-rule="nonzero"></path>
            </g>
        </g>
    </g>
</svg>