<svg xmlns="http://www.w3.org/2000/svg" viewBox="0 0 628.7 551.89"><defs><style>.cls-1{fill:#0f75bc;}.cls-2{fill:#2294c6;}.cls-2,.cls-3,.cls-4,.cls-5{isolation:isolate;}.cls-3{fill:#030e13;}.cls-4{fill:#399fcc;}.cls-5{fill:#eda761;}</style></defs><title>Element 1</title><g id="Ebene_2" data-name="Ebene 2"><g id="Ebene_1-2" data-name="Ebene 1"><path class="cls-1" d="M565.43,249.88c-6.64-65.64-26.73-123-53.52-158.5C424.45-24.56,234.43-27.09,127.64,66.3,97.3,92.84,71.07,147.61,56,212.72c-21.74-3.86-45.86-2.65-53,9.35-9.41,15.89,2.84,53.05,40.5,71.65.17.18-1.81,51.68,1,81.22,4.55,48.19,19.81,93.18,39.5,133.74,14.67,30.22,26.67,43.22,48.67,43.22,15.52,0,35.4-12,35.4-42.91h.35c92.12,0,185-.65,277.07-.62h0c0,28.53,17.15,43.53,36.15,43.53,22,0,35-13,47.81-43.22,26-54.67,37.91-123.49,38.85-190.06A598.57,598.57,0,0,0,565.43,249.88Z"/><path class="cls-2" d="M526.39,167.55c0,138.5-138.07,250.78-308.41,250.78-64.33,0-124-16-173.46-43.4-2.8-29.53-1.8-61.55-.83-82,1-21,6-59,12.29-80.17C71.07,147.61,87.7,100.89,127.64,66.3,234.89-26.57,424.7-24.11,511.91,91.38A208.09,208.09,0,0,1,526.39,167.55Z"/><path class="cls-2" d="M548.2,312.41c-9-9-8.5-23.52-8.5-34.52,0-13,4.08-20.13,11.62-24.67a23.32,23.32,0,0,1,12.56-3.12c12.37,0,64.83,19.79,64.83,46.79S568.35,332.55,548.2,312.41Z"/><ellipse class="cls-3" cx="113.39" cy="215.84" rx="10.9" ry="24.92"/><ellipse class="cls-3" cx="397.11" cy="215.84" rx="10.9" ry="24.92"/><ellipse class="cls-4" cx="223.28" cy="52.76" rx="64.45" ry="21.62" transform="translate(-5.01 75.57) rotate(-19)"/><path class="cls-3" d="M328,276.91a59.28,59.28,0,0,1-15.42,11.15c-28.6,14-64.14,17.38-94.74,12.21-22.59-3.83-42.46-12.34-54.8-24.67-9.35-9.35-18.69-40.5,12.46-40.5L328.17,232C351.54,233.17,345.62,259.37,328,276.91Z"/><path class="cls-5" d="M328,276.91a59.28,59.28,0,0,1-15.42,11.15c-28.6,14-64.14,17.38-94.74,12.21,7-14.33,24.39-27.45,46.82-33.55C290.88,259.59,316.05,264.23,328,276.91Z"/></g></g></svg>