<?xml version="1.0" encoding="UTF-8"?>
<svg width="196px" height="196px" viewBox="0 0 196 196" version="1.1" xmlns="http://www.w3.org/2000/svg" xmlns:xlink="http://www.w3.org/1999/xlink">
    <!-- Generator: Sketch 45.1 (43504) - http://www.bohemiancoding.com/sketch -->
    <title>swop-pending-invert</title>
    <desc>Created with Sketch.</desc>
    <defs></defs>
    <g id="Page-1" stroke="none" stroke-width="1" fill="none" fill-rule="evenodd">
        <g id="Artboard-2" transform="translate(-1234.000000, -730.000000)">
            <g id="swop-pending-invert" transform="translate(1234.000000, 730.000000)">
                <g id="User" fill="#FFFFFF">
                    <path d="M70.0359489,133.971435 C70.0239709,133.980669 70.0119879,133.989897 70,133.999119 L70,169.5 C70,184.135546 58.1355459,196 43.5,196 C28.8644541,196 17,184.135546 17,169.5 L17,133.999119 C16.9880121,133.989897 16.9760291,133.980669 16.9640511,133.971435 C16.6451256,133.990388 16.3236852,134 16,134 C7.49929467,134 0.546938383,127.37073 0.0307419841,119 L0,119 L0,99.002078 C0.269670307,75.2070928 19.6418067,56 43.5,56 C67.3581933,56 86.7303297,75.2070928 86.997209,99.002078 L87,119 L86.969258,119 C86.4530616,127.37073 79.5007053,134 71,134 C70.6763148,134 70.3548744,133.990388 70.0359489,133.971435 Z M43.5,53 C28.8644541,53 17,41.1355459 17,26.5 C17,11.8644541 28.8644541,0 43.5,0 C58.1355459,0 70,11.8644541 70,26.5 C70,41.1355459 58.1355459,53 43.5,53 Z" id="Combined-Shape"></path>
                </g>
                <g id="User-Copy" transform="translate(109.000000, 0.000000)" stroke="#FFFFFF" stroke-width="6">
                    <path d="M3,118.40907 L2.85144027,116 L1.38678636e-11,116 L0,119 L3,119 L3,118.40907 Z M83.9999231,118.410317 L84,119.000419 L87,119 L87,116 L84.1485597,116 L83.9999231,118.410317 Z M3,118.40907 L3,99.002078 C3.25108227,76.8642507 21.305713,59 43.5,59 C65.6946296,59 83.7487303,76.8645193 83.9973976,99.0357232 L83.9999231,118.410317 L83.974946,118.81535 C83.5539151,125.64286 77.8766868,131 71,131 C70.7367908,131 70.4747003,130.992216 70.2139237,130.976718 L69.0933213,130.910122 L68.2042713,131.595523 C68.1875358,131.60842 68.1875358,131.60842 68.1707912,131.621306 L67,132.521975 L67,169.5 C67,182.478692 56.4786916,193 43.5,193 C30.5213084,193 20,182.478692 20,169.5 L20,132.521975 L18.8292088,131.621306 C18.8124642,131.60842 18.8124642,131.60842 18.7957287,131.595523 L17.9066787,130.910122 L16.7860763,130.976718 C16.5252997,130.992216 16.2632092,131 16,131 C9.12331319,131 3.44608489,125.64286 3.025054,118.81535 L3,118.40907 Z M43.5,50 C56.4786916,50 67,39.4786916 67,26.5 C67,13.5213084 56.4786916,3 43.5,3 C30.5213084,3 20,13.5213084 20,26.5 C20,39.4786916 30.5213084,50 43.5,50 Z" id="Combined-Shape"></path>
                </g>
            </g>
        </g>
    </g>
</svg>