<svg xmlns="http://www.w3.org/2000/svg" viewBox="0 0 683.68 218.32"><defs><style>.cls-1{fill:#f39016;}.cls-2{fill:#0f75bc;}.cls-3{fill:#2294c6;}.cls-3,.cls-4,.cls-5,.cls-6{isolation:isolate;}.cls-4{fill:#030e13;}.cls-5{fill:#399fcc;}.cls-6{fill:#eda761;}</style></defs><title>Element 1</title><g id="Ebene_2" data-name="Ebene 2"><g id="Ebene_1-2" data-name="Ebene 1"><path class="cls-1" d="M39.95,168.32A66.68,66.68,0,0,1,3.63,157.55,7.48,7.48,0,0,1,0,150.82q0-5.57,7.26-15.77a7.18,7.18,0,0,1,6.5-3.27q5,0,11.66,4,9.36,5.39,15.86,5.39,11.66,0,11.66-4.62,0-1.92-3.63-3.27a44.69,44.69,0,0,0-9.17-2.12A55.92,55.92,0,0,1,28.19,128a66.68,66.68,0,0,1-11.95-5.87q-5.55-3.46-9.17-10.87a39.54,39.54,0,0,1-3.63-17.6q0-30.38,41.47-30.38,13.57,0,27.9,6.54,6.69,3.08,6.69,8.46,0,3.85-4,10.38-4.4,6.92-8.79,6.92a17.24,17.24,0,0,1-6.5-1.92,36.68,36.68,0,0,0-15.48-3.85q-11.28,0-11.28,4.23,0,3.08,3.73,4.9a29.14,29.14,0,0,0,9.36,2.5,74.33,74.33,0,0,1,12.14,2.6,76.38,76.38,0,0,1,12.14,4.71,22.16,22.16,0,0,1,9.36,9.42q3.73,6.63,3.73,16.25,0,10.38-3.73,17.4a23.57,23.57,0,0,1-10.51,10.38A53.79,53.79,0,0,1,55.9,167,84.93,84.93,0,0,1,39.95,168.32Z"/><path class="cls-1" d="M225.93,65.29q12.56,5.5,12.56,13.54a17.82,17.82,0,0,1-1.77,7.26q-4.52,10.8-6.67,16.29L208.46,155l-.49,1.47a22,22,0,0,1-1.67,3.24,22.58,22.58,0,0,1-3,4.12,16.34,16.34,0,0,1-4.61,3.24,14.17,14.17,0,0,1-6.48,1.28,14.77,14.77,0,0,1-9.72-3.24,17.58,17.58,0,0,1-5.59-7l-1.57-3.34q-1.18-2.94-6.08-16l-5.5-14.62q-2,4.71-5.79,15.41T152.13,155l-.49,1.47a22.12,22.12,0,0,1-1.67,3.24,20.16,20.16,0,0,1-3.14,4.12A17.6,17.6,0,0,1,142,167a16.12,16.12,0,0,1-6.88,1.28,13.6,13.6,0,0,1-9.31-3.24,17.84,17.84,0,0,1-5.5-7l-1.57-3.34L90.7,85.89q-2-5.89-2-7.65,0-7.85,11.19-12.36a29.31,29.31,0,0,1,10.6-2.55,10.42,10.42,0,0,1,6,1.67,11.25,11.25,0,0,1,3.43,3.34,40.48,40.48,0,0,1,2.16,4.42q.19.59,6.38,17.17t7,18.74L147,76.87a10.27,10.27,0,0,1,.59-1.37,32.56,32.56,0,0,1,1.86-2.94,26.56,26.56,0,0,1,3.14-3.83,16.15,16.15,0,0,1,4.61-3,14.27,14.27,0,0,1,6.08-1.37A15.86,15.86,0,0,1,173,67.44a18.82,18.82,0,0,1,5.79,6.28l1.57,3.34q9.81,27.48,11.58,31.4l12-32.58q4.71-12.56,14.13-12.56A18.31,18.31,0,0,1,225.93,65.29Z"/><path class="cls-1" d="M293.7,63.32q20.95,0,36.75,14.85T346.26,116a50,50,0,0,1-8.19,28.26q-8.19,12.36-19.9,18.2a53.33,53.33,0,0,1-24.09,5.84,52,52,0,0,1-24.57-6.23,54.13,54.13,0,0,1-19.9-18.4,48.49,48.49,0,0,1-8.09-27.49q0-23,16-37.94T293.7,63.32Zm-12.38,66.58q6.09,4.7,12.38,4.69t12.57-4.79q6.28-4.79,6.28-14.18t-5.9-14A20.87,20.87,0,0,0,293.51,97a19.4,19.4,0,0,0-12.38,4.79q-5.9,4.79-5.9,14Q275.23,125.21,281.33,129.91Z"/><path class="cls-1" d="M358.08,200.87V81a57,57,0,0,1,.31-7,16.69,16.69,0,0,1,1.85-5.24,8.66,8.66,0,0,1,5.24-4.21,32.92,32.92,0,0,1,10.06-1.23q9.24,0,13,2.77A11.1,11.1,0,0,1,393,74.2q7.8-10.67,23.4-10.67,17.86,0,32.85,15.81t15,36.34a52.44,52.44,0,0,1-14.88,37.16q-14.89,15.81-33,15.81-15.6,0-23.2-9.44v41.47a57.05,57.05,0,0,1-.31,7,16.71,16.71,0,0,1-1.85,5.23,8.64,8.64,0,0,1-5.23,4.21,32.89,32.89,0,0,1-10.06,1.23,33.9,33.9,0,0,1-10.16-1.23,8.77,8.77,0,0,1-5.34-4.11,15.66,15.66,0,0,1-1.85-5.13A57,57,0,0,1,358.08,200.87Zm40.65-96.7A18.28,18.28,0,0,0,394,116.29a17.68,17.68,0,0,0,4.83,12A15.61,15.61,0,0,0,411,133.74a17.27,17.27,0,0,0,12.83-5.34,16.85,16.85,0,0,0,5.24-12.11,17.74,17.74,0,0,0-4.93-12.22,16.4,16.4,0,0,0-12.73-5.44Q403.45,98.63,398.73,104.18Z"/><path class="cls-2" d="M662.78,82.55c-2.19-21.68-8.83-40.63-17.68-52.36C616.21-8.11,553.43-9,518.15,21.9c-10,8.77-18.69,26.86-23.67,48.37C487.3,69,479.33,69.4,477,73.36c-3.11,5.25.94,17.53,13.38,23.67.06.06-.6,17.07.33,26.83,1.5,15.92,6.55,30.78,13,44.18,4.85,10,8.81,14.28,16.08,14.28,5.13,0,11.69-4,11.69-14.18h.12c30.43,0,61.1-.22,91.53-.21h0c0,9.43,5.67,14.38,11.94,14.38,7.27,0,11.56-4.29,15.8-14.28,8.59-18.06,12.52-40.8,12.83-62.79A197.74,197.74,0,0,0,662.78,82.55Z"/><path class="cls-3" d="M649.88,55.35c0,45.76-45.61,82.85-101.89,82.85a118.38,118.38,0,0,1-57.3-14.34,199.85,199.85,0,0,1-.27-27.1c.33-6.94,2-19.49,4.06-26.49,5-21.51,10.48-36.94,23.67-48.37C553.58-8.78,616.29-8,645.1,30.19A68.75,68.75,0,0,1,649.88,55.35Z"/><path class="cls-3" d="M657.09,103.21c-3-3-2.81-7.77-2.81-11.4,0-4.29,1.35-6.65,3.84-8.15a7.7,7.7,0,0,1,4.15-1c4.09,0,21.42,6.54,21.42,15.46S663.74,109.86,657.09,103.21Z"/><ellipse class="cls-4" cx="513.45" cy="71.3" rx="3.6" ry="8.23"/><ellipse class="cls-4" cx="607.17" cy="71.3" rx="3.6" ry="8.23"/><ellipse class="cls-5" cx="549.75" cy="17.43" rx="21.29" ry="7.14" transform="translate(24.28 179.93) rotate(-19)"/><path class="cls-4" d="M584.35,91.48a19.58,19.58,0,0,1-5.09,3.68c-9.45,4.63-21.19,5.74-31.3,4-7.46-1.27-14-4.08-18.1-8.15C526.77,88,523.68,77.67,534,77.67l50.43-1C592.12,77,590.16,85.69,584.35,91.48Z"/><path class="cls-6" d="M584.35,91.48a19.58,19.58,0,0,1-5.09,3.68c-9.45,4.63-21.19,5.74-31.3,4,2.31-4.73,8.06-9.07,15.47-11.08C572.08,85.76,580.4,87.29,584.35,91.48Z"/></g></g></svg>