<?xml version="1.0" encoding="UTF-8"?>
<svg width="202px" height="177px" viewBox="0 0 202 177" version="1.1" xmlns="http://www.w3.org/2000/svg" xmlns:xlink="http://www.w3.org/1999/xlink">
    <!-- Generator: Sketch 45.1 (43504) - http://www.bohemiancoding.com/sketch -->
    <title>swoppy@3x</title>
    <desc>Created with Sketch.</desc>
    <defs></defs>
    <g id="Page-1" stroke="none" stroke-width="1" fill="none" fill-rule="evenodd">
        <g id="Artboard" transform="translate(-478.000000, -243.000000)" fill-rule="nonzero">
            <g id="Element-3" transform="translate(197.000000, 242.000000)">
                <g id="swoppy" transform="translate(280.000000, 0.000000)">
                    <path d="M151.718665,162.638704 C149.164398,162.189255 146.69824,161.524374 144.1,160.54 C143.940914,161.498056 143.90061,162.472076 143.98,163.44 C114.41,163.44 84.61,163.65 55.04,163.64 L54.93,163.64 C54.93,163.64 54.93,163.57 54.93,163.54 L54.0865801,163.54 C54.3673126,163.576403 54.6484526,163.613095 54.93,163.65 C53.93,172.59 46.93,177.55 41.93,177.55 C38.93,177.55 32.93,172.55 27.93,163.55 C27.9433327,163.546659 27.9566665,163.543326 27.9700015,163.54 L27.93,163.54 C20.69,151.01 16.71,136.08 15.25,120.61 C14.3850095,111.086267 14.3850095,101.503733 15.25,91.98 C15.9242877,84.2125511 17.1338279,76.5008968 18.87,68.9 C18.87,68.78 18.87,68.66 18.95,68.54 C23.79,47.64 32.21,30.06 41.95,21.54 C76.23,-8.46 134.61,-5.46 165.3,29.54 C165.86,30.2066667 166.41,30.8733333 166.95,31.54 C174.79,41.11 180.35,59.4 182.48,80.47 C183.212911,87.8027496 183.523424,95.1715869 183.41,102.54 C183.11,123.91 179.29,146 170.94,163.54 L170.54,163.54 L169.568903,163.54 C169.887922,163.5718 170.211487,163.59 170.54,163.59 L170.94,163.55 C165.94,172.55 160.94,177.55 157.1,177.55 C152.65,177.55 144.62,171.18 143.98,163.45 C146.550012,163.085376 149.131291,162.814851 151.718665,162.638704 Z" id="Combined-Shape" fill="#0F75BC"></path>
                    <path d="M54.94,163.55 C54.94,163.55 54.94,163.62 54.94,163.65 C45.92,163.65 36.92,163.616667 27.94,163.55 L54.94,163.55 Z" id="Shape" fill="#0F75BC"></path>
                    <path d="M163.25,163.51 C156.836667,163.47 150.413333,163.45 143.98,163.45 C143.90061,162.482076 143.940914,161.508056 144.1,160.55 C150.22,162.84 155.66,163.38 163.25,163.51 Z" id="Shape" fill="#0F75BC"></path>
                    <path d="M54.94,163.55 C54.94,163.55 54.94,163.62 54.94,163.65 C45.92,163.65 36.92,163.616667 27.94,163.55 L54.94,163.55 Z" id="Shape" fill="#0F75BC"></path>
                    <path d="M163.25,163.51 C156.836667,163.47 150.413333,163.45 143.98,163.45 C143.90061,162.482076 143.940914,161.508056 144.1,160.55 C150.22,162.84 155.66,163.38 163.25,163.51 Z" id="Shape" fill="#0F75BC"></path>
                    <path d="M169.94,54.05 C169.94,98.51 125.62,134.55 70.94,134.55 C51.5009565,134.687356 32.3443249,129.894757 15.26,120.62 C14.3950095,111.096267 14.3950095,101.513733 15.26,91.99 L14.96,94.55 C2.87,88.55 -1.04,76.65 1.96,71.55 C4.24,67.7 11.96,67.31 18.96,68.55 C23.8,47.65 32.22,30.07 41.96,21.55 C76.24,-8.45 134.62,-5.45 165.31,29.6 C168.37114,37.3880581 169.94172,45.6819402 169.94,54.05 L169.94,54.05 Z" id="Shape" fill="#2294C6"></path>
                    <path d="M18.94,68.55 C18.94,68.67 18.94,68.79 18.86,68.91 C17.2593787,76.5397174 16.051125,84.2465071 15.24,92 L14.94,94.56 C2.85,88.56 -1.06,76.66 1.94,71.56 C4.22,67.7 12,67.31 18.94,68.55 Z" id="Shape" fill="#0F75BC"></path>
                    <path d="M182.94,102.55 C181.82,102.76 179.15,102.08 176.94,100.55 C173.66,98.28 173.83,94.61 173.94,91.55 C173.965045,90.412076 174.058547,89.2766904 174.22,88.15 C174.59,85.73 175.52,83.01 177.94,81.55 C179.153523,80.8490163 180.53937,80.5025546 181.94,80.55 C185.94,80.55 193.53,82.09 198.2,85.2 C200.73,86.89 202.56,88.8 202.91,90.55 C204.1,96.36 196.94,102.55 182.94,102.55 Z" id="Shape" fill="#2294C6"></path>
                    <ellipse id="Oval" fill-opacity="0.9" fill="#000000" cx="35.44" cy="69.55" rx="3.5" ry="8"></ellipse>
                    <ellipse id="Oval" fill-opacity="0.9" fill="#000000" cx="128.44" cy="69.55" rx="3.5" ry="8"></ellipse>
                    <path d="M105.89,74 C104.428788,75.4569208 102.740007,76.6660881 100.89,77.58 C91.71,82.08 80.3,83.16 70.48,81.5 C63.23,80.27 56.85,77.5 52.89,73.58 C49.89,70.58 46.89,60.58 56.89,60.58 L105.89,59.58 C113.44,59.93 111.54,68.34 105.89,74 Z" id="Shape" fill-opacity="0.9" fill="#000000"></path>
                    <ellipse id="Oval" fill="#FFFFFF" opacity="0.1" transform="translate(68.946730, 23.559480) rotate(-26.950000) translate(-68.946730, -23.559480) " cx="68.94673" cy="23.5594804" rx="25" ry="8"></ellipse>
                    <path d="M105.89,74 C104.428788,75.4569208 102.740007,76.6660881 100.89,77.58 C91.71,82.08 80.3,83.16 70.48,81.5 C72.72,76.9 78.31,72.69 85.48,70.73 C94,68.41 102,69.9 105.89,74 Z" id="Shape" fill="#EDA761"></path>
                </g>
            </g>
        </g>
    </g>
</svg>