<?xml version="1.0" encoding="UTF-8"?>
<svg width="169px" height="196px" viewBox="0 0 169 196" version="1.1" xmlns="http://www.w3.org/2000/svg" xmlns:xlink="http://www.w3.org/1999/xlink">
    <!-- Generator: Sketch 45.1 (43504) - http://www.bohemiancoding.com/sketch -->
    <title>swop-notification</title>
    <desc>Created with Sketch.</desc>
    <defs></defs>
    <g id="Page-1" stroke="none" stroke-width="1" fill="none" fill-rule="evenodd">
        <g id="Artboard-2" transform="translate(-560.000000, -1009.000000)" fill="#F39016">
            <g id="swop-notification" transform="translate(560.000000, 1009.000000)">
                <g id="Group-3-Copy">
                    <g id="Combined-Copy-2">
                        <g id="User">
                            <path d="M70.0359489,133.971435 C70.0239709,133.980669 70.0119879,133.989897 70,133.999119 L70,169.5 C70,184.135546 58.1355459,196 43.5,196 C28.8644541,196 17,184.135546 17,169.5 L17,133.999119 C16.9880121,133.989897 16.9760291,133.980669 16.9640511,133.971435 C16.6451256,133.990388 16.3236852,134 16,134 C7.49929467,134 0.546938383,127.37073 0.0307419841,119 L0,119 L0,99.002078 C0.269670307,75.2070928 19.6418067,56 43.5,56 C67.3581933,56 86.7303297,75.2070928 86.997209,99.002078 L87,119 L86.969258,119 C86.4530616,127.37073 79.5007053,134 71,134 C70.6763148,134 70.3548744,133.990388 70.0359489,133.971435 Z M43.5,53 C28.8644541,53 17,41.1355459 17,26.5 C17,11.8644541 28.8644541,0 43.5,0 C58.1355459,0 70,11.8644541 70,26.5 C70,41.1355459 58.1355459,53 43.5,53 Z" id="Combined-Shape"></path>
                        </g>
                    </g>
                </g>
                <path d="M164.428042,124.487169 L141.001956,124.487169 L137.683261,26 L167.746738,26 L164.428042,124.487169 Z M152.714999,139.909342 C157.465313,139.909342 161.288281,141.308386 164.18402,144.106516 C167.079759,146.904646 168.527607,150.483595 168.527607,154.843472 C168.527607,159.138276 167.079759,162.684689 164.18402,165.482819 C161.288281,168.280949 157.465313,169.679993 152.714999,169.679993 C148.029759,169.679993 144.239326,168.280949 141.343587,165.482819 C138.447848,162.684689 137,159.138276 137,154.843472 C137,150.548668 138.447848,146.985986 141.343587,144.15532 C144.239326,141.324654 148.029759,139.909342 152.714999,139.909342 Z" id="!"></path>
            </g>
        </g>
    </g>
</svg>