<?xml version="1.0" encoding="UTF-8"?>
<svg width="196px" height="196px" viewBox="0 0 196 196" version="1.1" xmlns="http://www.w3.org/2000/svg" xmlns:xlink="http://www.w3.org/1999/xlink">
    <!-- Generator: Sketch 45.1 (43504) - http://www.bohemiancoding.com/sketch -->
    <title>swop-waiting</title>
    <desc>Created with Sketch.</desc>
    <defs></defs>
    <g id="Page-1" stroke="none" stroke-width="1" fill="none" fill-rule="evenodd">
        <g id="Artboard-2" transform="translate(-233.000000, -1009.000000)" fill="#F39016">
            <g id="swop-waiting" transform="translate(233.000000, 1009.000000)">
                <g id="Combined-Copy-2">
                    <g id="User">
                        <path d="M70.0359489,133.971435 C70.0239709,133.980669 70.0119879,133.989897 70,133.999119 L70,169.5 C70,184.135546 58.1355459,196 43.5,196 C28.8644541,196 17,184.135546 17,169.5 L17,133.999119 C16.9880121,133.989897 16.9760291,133.980669 16.9640511,133.971435 C16.6451256,133.990388 16.3236852,134 16,134 C7.49929467,134 0.546938383,127.37073 0.0307419841,119 L0,119 L0,99.002078 C0.269670307,75.2070928 19.6418067,56 43.5,56 C67.3581933,56 86.7303297,75.2070928 86.997209,99.002078 L87,119 L86.969258,119 C86.4530616,127.37073 79.5007053,134 71,134 C70.6763148,134 70.3548744,133.990388 70.0359489,133.971435 Z M43.5,53 C28.8644541,53 17,41.1355459 17,26.5 C17,11.8644541 28.8644541,0 43.5,0 C58.1355459,0 70,11.8644541 70,26.5 C70,41.1355459 58.1355459,53 43.5,53 Z" id="Combined-Shape"></path>
                    </g>
                </g>
                <path d="M138.160859,125.35935 C138.160859,116.347119 139.255185,109.169628 141.443869,103.826663 C143.632554,98.4836972 147.639718,93.221277 153.465482,88.0392441 C159.291245,82.8572113 163.169665,78.6408379 165.100857,75.3899975 C167.03205,72.139157 167.997631,68.711342 167.997631,65.1064496 C167.997631,54.2273994 162.976607,48.7879558 152.934406,48.7879558 C148.170799,48.7879558 144.356751,50.2524214 141.492149,53.1813965 C138.627547,56.1103715 137.130895,60.1497216 137.002149,65.2995679 L109,65.2995679 C109.128746,53.0043099 113.103724,43.380679 120.925053,36.4283866 C128.746382,29.4760941 139.41606,26 152.934406,26 C166.581499,26 177.170712,29.2990708 184.702362,35.8973113 C192.234012,42.4955519 195.999781,51.8134152 195.999781,63.8511809 C195.999781,69.3228925 194.77671,74.4887546 192.330533,79.348922 C189.884356,84.2090894 185.603611,89.6002539 179.488168,95.5225771 L171.666879,102.95763 C166.774525,107.656865 163.974338,113.160681 163.266234,119.469243 L162.879997,125.35935 L138.160859,125.35935 Z M135.360644,155.003004 C135.360644,150.690008 136.825109,147.133449 139.754084,144.33322 C142.68306,141.532991 146.432735,140.132897 151.003224,140.132897 C155.573712,140.132897 159.323388,141.532991 162.252363,144.33322 C165.181338,147.133449 166.645804,150.690008 166.645804,155.003004 C166.645804,159.251627 165.213524,162.759908 162.348922,165.52795 C159.48432,168.295992 155.702458,169.679993 151.003224,169.679993 C146.303989,169.679993 142.522127,168.295992 139.657525,165.52795 C136.792923,162.759908 135.360644,159.251627 135.360644,155.003004 Z" id="?"></path>
            </g>
        </g>
    </g>
</svg>