<?xml version="1.0" encoding="UTF-8"?>
<svg width="196px" height="196px" viewBox="0 0 196 196" version="1.1" xmlns="http://www.w3.org/2000/svg" xmlns:xlink="http://www.w3.org/1999/xlink">
    <!-- Generator: Sketch 45.1 (43504) - http://www.bohemiancoding.com/sketch -->
    <title>swop-accepted-invert</title>
    <desc>Created with Sketch.</desc>
    <defs></defs>
    <g id="Page-1" stroke="none" stroke-width="1" fill="none" fill-rule="evenodd">
        <g id="Artboard-2" transform="translate(-980.000000, -758.000000)" fill="#FFFFFF">
            <g id="swop-accepted-invert" transform="translate(980.000000, 758.000000)">
                <g id="heart" transform="translate(73.000000, 37.278574)" fill-rule="nonzero">
                    <path d="M24.8380382,42.579494 C24.3575404,42.579494 23.9509654,42.4131679 23.6183131,42.0805156 L6.32039364,25.3924587 C6.13558681,25.2446132 5.88147742,25.0043643 5.55806546,24.671712 C5.23465351,24.3390597 4.72181455,23.7338174 4.01954859,22.8559849 C3.31728263,21.9781525 2.6889394,21.0772191 2.13451891,20.153185 C1.58009841,19.2291508 1.08574014,18.1110695 0.651444082,16.798941 C0.217148027,15.4868125 0,14.2116454 0,12.9734396 C0,8.90768928 1.17352338,5.72901178 3.52057014,3.43740707 C5.8676169,1.14580236 9.1109768,0 13.2506498,0 C14.3964522,0 15.5653554,0.198667344 16.7573595,0.596002032 C17.9493635,0.99333672 19.0582045,1.52927653 20.0838824,2.20382147 C21.1095603,2.8783664 21.992013,3.5113298 22.7312403,4.10271166 C23.4704676,4.69409352 24.1727336,5.32243675 24.8380382,5.98774135 C25.5033428,5.32243675 26.2056087,4.69409352 26.9448361,4.10271166 C27.6840634,3.5113298 28.566516,2.8783664 29.5921939,2.20382147 C30.6178718,1.52927653 31.7267128,0.99333672 32.9187169,0.596002032 C34.1107209,0.198667344 35.2796242,0 36.4254265,0 C40.5650995,0 43.8084594,1.14580236 46.1555062,3.43740707 C48.502553,5.72901178 49.6760763,8.90768928 49.6760763,12.9734396 C49.6760763,17.0576706 47.5600381,21.2158243 43.3279617,25.4479007 L26.0577633,42.0805156 C25.725111,42.4131679 25.3185359,42.579494 24.8380382,42.579494 Z" id="Shape"></path>
                </g>
                <g id="swop-accepted">
                    <g id="User">
                        <path d="M70.0359489,133.971435 C70.0239709,133.980669 70.0119879,133.989897 70,133.999119 L70,169.5 C70,184.135546 58.1355459,196 43.5,196 C28.8644541,196 17,184.135546 17,169.5 L17,133.999119 C16.9880121,133.989897 16.9760291,133.980669 16.9640511,133.971435 C16.6451256,133.990388 16.3236852,134 16,134 C7.49929467,134 0.546938383,127.37073 0.0307419841,119 L0,119 L0,99.002078 C0.269670307,75.2070928 19.6418067,56 43.5,56 C67.3581933,56 86.7303297,75.2070928 86.997209,99.002078 L87,119 L86.969258,119 C86.4530616,127.37073 79.5007053,134 71,134 C70.6763148,134 70.3548744,133.990388 70.0359489,133.971435 Z M43.5,53 C28.8644541,53 17,41.1355459 17,26.5 C17,11.8644541 28.8644541,0 43.5,0 C58.1355459,0 70,11.8644541 70,26.5 C70,41.1355459 58.1355459,53 43.5,53 Z" id="Combined-Shape"></path>
                    </g>
                    <g id="User-Copy" transform="translate(109.000000, 0.000000)">
                        <path d="M70.0359489,133.971435 C70.0239709,133.980669 70.0119879,133.989897 70,133.999119 L70,169.5 C70,184.135546 58.1355459,196 43.5,196 C28.8644541,196 17,184.135546 17,169.5 L17,133.999119 C16.9880121,133.989897 16.9760291,133.980669 16.9640511,133.971435 C16.6451256,133.990388 16.3236852,134 16,134 C7.49929467,134 0.546938383,127.37073 0.0307419841,119 L0,119 L0,99.002078 C0.269670307,75.2070928 19.6418067,56 43.5,56 C67.3581933,56 86.7303297,75.2070928 86.997209,99.002078 L87,119 L86.969258,119 C86.4530616,127.37073 79.5007053,134 71,134 C70.6763148,134 70.3548744,133.990388 70.0359489,133.971435 Z M43.5,53 C28.8644541,53 17,41.1355459 17,26.5 C17,11.8644541 28.8644541,0 43.5,0 C58.1355459,0 70,11.8644541 70,26.5 C70,41.1355459 58.1355459,53 43.5,53 Z" id="Combined-Shape"></path>
                    </g>
                </g>
            </g>
        </g>
    </g>
</svg>