<?xml version="1.0" encoding="utf-8"?>
<!-- Generator: Adobe Illustrator 21.0.2, SVG Export Plug-In . SVG Version: 6.00 Build 0)  -->
<svg version="1.1" id="Ebene_1" xmlns="http://www.w3.org/2000/svg" xmlns:xlink="http://www.w3.org/1999/xlink" x="0px" y="0px"
	 viewBox="0 0 480 190" style="enable-background:new 0 0 480 190;" xml:space="preserve">
<style type="text/css">
	.st0{enable-background:new    ;}
	.st1{fill:#FFFFFF;}
	.st2{fill:#0F75BC;}
	.st3{fill:#2294C6;}
	.st4{fill-opacity:0.9;}
	.st5{opacity:0.1;fill:#FFFFFF;enable-background:new    ;}
	.st6{fill:#EDA761;}
</style>
<title>Element 3@1,5x</title>
<desc>Created with Sketch.</desc>
<g id="Page-1">
	<g id="Artboard" transform="translate(-200.000000, -243.000000)">
		<g id="Element-3" transform="translate(197.000000, 242.000000)">
			<g class="st0">
				<path class="st1" d="M5.4,156.5c-1.5-1-2.3-2.5-2.3-4.6c0-2.1,1.5-5.2,4.6-9.5c0.9-1.4,2.3-2,4.3-2c2,0,4.6,1,8,2.9
					c3.4,2,6.4,2.9,9.1,2.9c4.9,0,7.3-1,7.3-2.9c0-1.5-2.7-2.6-8-3.4c-5-0.7-10-2.6-15-5.6c-2.3-1.4-4.2-3.7-5.8-6.8
					c-1.5-3.1-2.3-6.7-2.3-11c0-12.6,8.7-19,26-19c5.7,0,11.5,1.4,17.5,4.1c2.8,1.3,4.2,2.9,4.2,4.8c0,1.9-0.9,4.3-2.6,7.1
					c-1.8,2.8-3.6,4.2-5.4,4.2c-1,0-2.7-0.6-5.3-1.8c-2.6-1.2-5.4-1.8-8.5-1.8c-4.7,0-7.1,0.9-7.1,2.6c0,2.4,2.7,4,8.2,4.7
					c5.3,0.6,10.4,2.1,15.4,4.6c2.3,1.1,4.3,3.1,5.8,5.8c1.6,2.8,2.3,6.2,2.3,10.4c0,4.2-0.8,7.7-2.3,10.6c-1.6,2.9-3.7,5.1-6.5,6.5
					c-5.1,2.5-11.5,3.7-19.3,3.7C20,163.2,12.6,161,5.4,156.5z"/>
				<path class="st1" d="M140.9,99.4c5.1,2.2,7.7,5,7.7,8.3c0,1.4-0.6,3.5-1.9,6.5c-1.3,3-2.4,5.6-3.2,7.9l-13.2,32.2
					c-1.2,3.5-3.2,6-6,7.4c-1.2,0.6-2.7,0.8-4.6,0.8c-1.8,0-3.6-0.7-5.3-2.1c-1.7-1.4-2.9-2.8-3.4-4.3l-1-2c-0.6-1.6-3-7.8-7.1-18.7
					c-0.8,1.9-2,5.1-3.5,9.4c-1.6,4.4-2.6,7.1-3,8.2c-0.4,1.1-0.7,1.8-0.8,2.2c-0.1,0.4-0.5,1-1,2c-0.6,1-1.2,1.8-1.9,2.5
					c-1.9,1.9-4.1,2.9-6.6,2.9c-2.5,0-4.6-0.7-6.2-2.1c-1.7-1.4-2.8-2.8-3.4-4.3L58.2,112c-0.8-2.4-1.2-4-1.2-4.7
					c0-3.2,2.3-5.7,6.8-7.6c2.6-1,4.6-1.6,6.2-1.6c1.6,0,2.9,0.3,3.9,1c1,0.7,1.7,1.4,2.1,2c0.4,0.7,0.7,1.4,1,2.1
					c1.4,3.2,4.2,10.7,8.5,22.6l7.1-19.4c0.5-1.6,1.4-3,2.6-4.2c2.3-2.3,4.7-3.5,7.1-3.5c2.4,0,4.5,0.6,6.2,1.9
					c1.7,1.3,2.9,2.6,3.5,3.8l1,2c4,11.2,6.4,17.6,7.1,19.2l7.3-19.9c1.9-5.1,4.8-7.7,8.6-7.7C137.6,98.2,139.2,98.6,140.9,99.4z"/>
				<path class="st1" d="M161.1,106.8c6.7-6.2,14.4-9.4,23-9.4c8.6,0,16.3,3.1,22.9,9.3c6.6,6.2,10,14.1,10,23.7
					c0,6.6-1.7,12.5-5.2,17.7c-3.4,5.2-7.6,9-12.5,11.4c-4.9,2.4-10,3.7-15.3,3.7s-10.4-1.3-15.4-3.9c-5-2.6-9.1-6.4-12.5-11.5
					c-3.4-5.1-5.1-10.8-5.1-17.2C151,121,154.4,113.1,161.1,106.8z M176.1,139.2c2.6,2,5.2,2.9,7.8,2.9c2.6,0,5.3-1,7.9-3
					c2.6-2,4-5,4-8.9c0-3.9-1.2-6.8-3.7-8.8c-2.5-1.9-5.2-2.9-8-2.9s-5.6,1-8,3c-2.5,2-3.7,4.9-3.7,8.8
					C172.2,134.3,173.5,137.2,176.1,139.2z"/>
				<path class="st1" d="M224.8,179.3v-70.1c0-1.8,0.1-3.2,0.2-4.1c0.1-0.9,0.5-1.9,1-3c1.1-2.2,3.8-3.2,8-3.2
					c4.2,0,7.1,0.5,8.6,1.6c1.5,1.1,2.3,2.7,2.6,4.7c3-4.2,7.8-6.2,14.3-6.2c6.5,0,12.7,3.1,18.5,9.2c5.8,6.2,8.8,13.3,8.8,21.5
					c0,8.2-2.9,15.3-8.7,21.5c-5.8,6.2-12,9.2-18.5,9.2c-6.6,0-11.3-1.8-14.3-5.5v24.2c0,1.8-0.1,3.2-0.2,4.1
					c-0.1,0.9-0.5,1.9-1.1,3.1c-0.6,1.2-1.6,2-3.1,2.5c-1.4,0.5-3.4,0.7-5.9,0.7c-2.5,0-4.5-0.2-5.9-0.7c-1.5-0.5-2.5-1.3-3.1-2.4
					c-0.6-1.1-1-2.1-1.1-3C224.9,182.5,224.8,181.2,224.8,179.3z M248.6,122.8c-1.8,2.2-2.8,4.5-2.8,7.1c0,2.6,0.9,4.9,2.8,7
					c1.9,2.1,4.3,3.2,7.2,3.2c2.9,0,5.4-1,7.4-3.1c2-2.1,3.1-4.4,3.1-7.1c0-2.6-1-5-2.9-7.1c-1.9-2.1-4.4-3.2-7.5-3.2
					C252.9,119.6,250.4,120.7,248.6,122.8z"/>
			</g>
			<path id="Combined-Shape" class="st2" d="M431.7,162.6c-2.6-0.4-5-1.1-7.6-2.1c-0.2,1-0.2,1.9-0.1,2.9c-29.6,0-59.4,0.2-88.9,0.2
				h-0.1c0,0,0-0.1,0-0.1h-0.8c0.3,0,0.6,0.1,0.8,0.1c-1,8.9-8,13.9-13,13.9c-3,0-9-5-14-14c0,0,0,0,0,0h0
				c-7.2-12.5-11.2-27.5-12.7-42.9c-0.9-9.5-0.9-19.1,0-28.6c0.7-7.8,1.9-15.5,3.6-23.1c0-0.1,0-0.2,0.1-0.4
				c4.8-20.9,13.3-38.5,23-47c34.3-30,92.7-27,123.3,8c0.6,0.7,1.1,1.3,1.7,2c7.8,9.6,13.4,27.9,15.5,48.9c0.7,7.3,1,14.7,0.9,22.1
				c-0.3,21.4-4.1,43.5-12.5,61h-0.4h-1c0.3,0,0.6,0.1,1,0.1l0.4,0c-5,9-10,14-13.8,14c-4.5,0-12.5-6.4-13.1-14.1
				C426.6,163.1,429.1,162.8,431.7,162.6z"/>
			<path id="Shape" class="st2" d="M334.9,163.6C334.9,163.6,334.9,163.6,334.9,163.6c-9,0.1-18,0.1-27,0H334.9z"/>
			<path id="Shape_1_" class="st2" d="M443.2,163.5c-6.4,0-12.8-0.1-19.3-0.1c-0.1-1,0-1.9,0.1-2.9
				C430.2,162.8,435.7,163.4,443.2,163.5z"/>
			<path id="Shape_2_" class="st2" d="M334.9,163.6C334.9,163.6,334.9,163.6,334.9,163.6c-9,0.1-18,0.1-27,0H334.9z"/>
			<path id="Shape_3_" class="st2" d="M443.2,163.5c-6.4,0-12.8-0.1-19.3-0.1c-0.1-1,0-1.9,0.1-2.9
				C430.2,162.8,435.7,163.4,443.2,163.5z"/>
			<path id="Shape_4_" class="st3" d="M449.9,54c0,44.5-44.3,80.5-99,80.5c-19.4,0.1-38.6-4.7-55.7-13.9c-0.9-9.5-0.9-19.1,0-28.6
				l-0.3,2.6c-12.1-6-16-17.9-13-23c2.3-3.9,10-4.2,17-3c4.8-20.9,13.3-38.5,23-47c34.3-30,92.7-27,123.4,8.1
				C448.4,37.4,449.9,45.7,449.9,54L449.9,54z"/>
			<path id="Shape_5_" class="st2" d="M298.9,68.6c0,0.1,0,0.2-0.1,0.4c-1.6,7.6-2.8,15.3-3.6,23.1l-0.3,2.6c-12.1-6-16-17.9-13-23
				C284.2,67.7,292,67.3,298.9,68.6z"/>
			<path id="Shape_6_" class="st3" d="M462.9,102.6c-1.1,0.2-3.8-0.5-6-2c-3.3-2.3-3.1-5.9-3-9c0-1.1,0.1-2.3,0.3-3.4
				c0.4-2.4,1.3-5.1,3.7-6.6c1.2-0.7,2.6-1,4-1c4,0,11.6,1.5,16.3,4.6c2.5,1.7,4.4,3.6,4.7,5.4C484.1,96.4,476.9,102.6,462.9,102.6z
				"/>
			<ellipse id="Oval" class="st4" cx="315.4" cy="69.6" rx="3.5" ry="8"/>
			<ellipse id="Oval_1_" class="st4" cx="408.4" cy="69.6" rx="3.5" ry="8"/>
			<path id="Shape_7_" class="st4" d="M385.9,74c-1.5,1.5-3.1,2.7-5,3.6c-9.2,4.5-20.6,5.6-30.4,3.9c-7.2-1.2-13.6-4-17.6-7.9
				c-3-3-6-13,4-13l49-1C393.4,59.9,391.5,68.3,385.9,74z"/>
			
				<ellipse id="Oval_2_" transform="matrix(0.8914 -0.4532 0.4532 0.8914 27.2173 160.7056)" class="st5" cx="348.9" cy="23.6" rx="25" ry="8"/>
			<path id="Shape_8_" class="st6" d="M385.9,74c-1.5,1.5-3.1,2.7-5,3.6c-9.2,4.5-20.6,5.6-30.4,3.9c2.2-4.6,7.8-8.8,15-10.8
				C374,68.4,382,69.9,385.9,74z"/>
		</g>
	</g>
</g>
</svg>
